<svg width="125" height="59" viewBox="0 0 125 59" fill="none" xmlns="http://www.w3.org/2000/svg">
<rect width="125" height="59" fill="white"/>
<path d="M28.27 21.38H30.602L36.674 37H34.078L32.428 32.754H26.4L24.772 37H22.154L28.27 21.38ZM31.944 30.928L29.436 24.086L26.84 30.928H31.944ZM38.2982 20.94H40.7182V33.678C40.7182 34.2647 40.8062 34.6387 40.9822 34.8C41.1582 34.9613 41.3782 35.042 41.6422 35.042C41.9356 35.042 42.2142 35.0127 42.4782 34.954C42.7422 34.8953 42.9622 34.822 43.1382 34.734L43.4902 36.648C43.1382 36.7947 42.7202 36.9193 42.2362 37.022C41.7522 37.1247 41.3196 37.176 40.9382 37.176C40.1169 37.176 39.4716 36.9487 39.0022 36.494C38.5329 36.0247 38.2982 35.3793 38.2982 34.558V20.94ZM50.1074 37.22C48.9194 37.22 47.8781 36.9487 46.9834 36.406C46.0887 35.8633 45.3921 35.1447 44.8934 34.25C44.3947 33.3407 44.1454 32.3507 44.1454 31.28C44.1454 30.1947 44.3947 29.1973 44.8934 28.288C45.3921 27.3787 46.0887 26.6527 46.9834 26.11C47.8781 25.5673 48.9267 25.296 50.1294 25.296C51.3321 25.296 52.3734 25.5747 53.2534 26.132C54.1334 26.6747 54.8081 27.3933 55.2774 28.288C55.7614 29.1827 56.0034 30.1433 56.0034 31.17C56.0034 31.5367 55.9814 31.83 55.9374 32.05H46.7194C46.7634 32.7247 46.9467 33.3187 47.2694 33.832C47.6067 34.3307 48.0247 34.7267 48.5234 35.02C49.0367 35.2987 49.5941 35.438 50.1954 35.438C50.8407 35.438 51.4494 35.2767 52.0214 34.954C52.5934 34.6313 52.9894 34.206 53.2094 33.678L55.2774 34.272C54.8814 35.1373 54.2214 35.8487 53.2974 36.406C52.3881 36.9487 51.3247 37.22 50.1074 37.22ZM46.6534 30.444H53.6054C53.5467 29.784 53.3561 29.2047 53.0334 28.706C52.7107 28.1927 52.2927 27.7967 51.7794 27.518C51.2807 27.2247 50.7234 27.078 50.1074 27.078C49.5061 27.078 48.9487 27.2247 48.4354 27.518C47.9367 27.7967 47.5261 28.1927 47.2034 28.706C46.8807 29.2047 46.6974 29.784 46.6534 30.444ZM58.9117 25.494L61.6397 29.432L61.8377 29.806L62.0357 29.432L64.7417 25.494H67.3597L63.2237 31.258L67.4037 37H64.7857L62.0357 33.084L61.8377 32.732L61.6397 33.084L58.8897 37H56.2717L60.4517 31.28L56.3157 25.494H58.9117ZM68.1235 29.08C68.1235 28.1267 68.2922 27.188 68.6295 26.264C68.9668 25.34 69.4582 24.504 70.1035 23.756C70.7635 23.008 71.5555 22.414 72.4795 21.974C73.4182 21.5193 74.4888 21.292 75.6915 21.292C77.0995 21.292 78.3168 21.6073 79.3435 22.238C80.3702 22.8687 81.1328 23.69 81.6315 24.702L79.6955 26C79.4022 25.3693 79.0282 24.878 78.5735 24.526C78.1335 24.1593 77.6495 23.9027 77.1215 23.756C76.6082 23.5947 76.1022 23.514 75.6035 23.514C74.7822 23.514 74.0635 23.6827 73.4475 24.02C72.8315 24.3427 72.3108 24.7753 71.8855 25.318C71.4748 25.8607 71.1595 26.4693 70.9395 27.144C70.7342 27.8187 70.6315 28.4933 70.6315 29.168C70.6315 30.18 70.8442 31.126 71.2695 32.006C71.7095 32.8713 72.3035 33.5753 73.0515 34.118C73.8142 34.646 74.6868 34.91 75.6695 34.91C76.1682 34.91 76.6888 34.822 77.2315 34.646C77.7742 34.47 78.2728 34.1987 78.7275 33.832C79.1822 33.4507 79.5488 32.952 79.8275 32.336L81.8735 33.502C81.5508 34.2793 81.0448 34.9393 80.3555 35.482C79.6808 36.0247 78.9182 36.4353 78.0675 36.714C77.2315 36.9927 76.4028 37.132 75.5815 37.132C74.4815 37.132 73.4768 36.9047 72.5675 36.45C71.6582 35.9807 70.8735 35.3647 70.2135 34.602C69.5535 33.8247 69.0402 32.9593 68.6735 32.006C68.3068 31.038 68.1235 30.0627 68.1235 29.08ZM90.3392 37.11C89.2979 37.11 88.3299 36.8973 87.4352 36.472C86.5552 36.0467 85.7779 35.46 85.1032 34.712C84.4432 33.964 83.9226 33.1133 83.5412 32.16C83.1746 31.2067 82.9912 30.1947 82.9912 29.124C82.9912 28.068 83.1746 27.0707 83.5412 26.132C83.9079 25.1787 84.4286 24.3427 85.1032 23.624C85.7779 22.8907 86.5626 22.3187 87.4572 21.908C88.3666 21.4827 89.3566 21.27 90.4272 21.27C91.9086 21.27 93.1552 21.5853 94.1672 22.216C95.1792 22.832 95.9492 23.6533 96.4772 24.68L94.5852 26.044C94.1599 25.1933 93.5732 24.5553 92.8252 24.13C92.0772 23.7047 91.2559 23.492 90.3612 23.492C89.3786 23.492 88.5206 23.7633 87.7872 24.306C87.0539 24.834 86.4892 25.5307 86.0932 26.396C85.6972 27.2613 85.4992 28.1927 85.4992 29.19C85.4992 30.246 85.7192 31.2067 86.1592 32.072C86.5992 32.9227 87.1932 33.6047 87.9412 34.118C88.7039 34.6313 89.5692 34.888 90.5372 34.888C92.1506 34.888 93.6026 34.118 94.8932 32.578V30.928H91.6152V29.102H96.9612V37H94.8932V35.064C93.5879 36.428 92.0699 37.11 90.3392 37.11ZM99.3537 37V34.184H101.356V37H99.3537Z" fill="black"/>
</svg>
